<?xml version="1.0" standalone="no"?>
<!DOCTYPE svg PUBLIC "-//W3C//DTD SVG 20010904//EN"
 "http://www.w3.org/TR/2001/REC-SVG-20010904/DTD/svg10.dtd">
<svg version="1.0" xmlns="http://www.w3.org/2000/svg"
 width="700.000000pt" height="700.000000pt" viewBox="0 0 700.000000 700.000000"
 preserveAspectRatio="xMidYMid meet">
<metadata>
Created by potrace 1.14, written by Peter Selinger 2001-2017
</metadata>
<g transform="translate(0.000000,700.000000) scale(0.100000,-0.100000)"
fill="#000000" stroke="none">
<path d="M1035 6985 c-119 -19 -241 -59 -362 -119 -293 -147 -510 -401 -613
-717 -64 -195 -61 -45 -58 -2694 3 -2286 5 -2414 22 -2485 118 -491 474 -843
956 -947 81 -17 202 -18 2520 -18 2318 0 2439 1 2520 18 482 104 838 456 956
947 17 71 19 199 21 2485 4 2652 7 2499 -57 2695 -123 377 -414 667 -791 790
-192 63 -58 60 -2661 59 -1853 -1 -2391 -4 -2453 -14z m3665 -1305 l0 -70 203
0 c219 0 255 -8 304 -61 46 -51 53 -86 53 -282 0 -240 -15 -283 -114 -332 -48
-24 -57 -25 -248 -25 l-198 0 0 -70 0 -70 -552 0 c-518 0 -556 2 -594 19 -80
36 -123 108 -124 204 l0 57 -357 0 c-396 0 -433 -5 -552 -63 -127 -61 -270
-233 -320 -383 -112 -337 14 -682 301 -823 145 -72 129 -71 1003 -71 831 0
890 -3 1035 -50 277 -90 525 -317 638 -584 61 -145 76 -229 76 -421 1 -188
-13 -277 -65 -419 -99 -271 -323 -516 -569 -623 -172 -74 -190 -76 -642 -81
l-408 -3 0 -53 c0 -98 -42 -174 -114 -207 -38 -17 -76 -19 -598 -19 l-558 0 0
70 0 70 -203 0 c-190 0 -205 1 -247 23 -26 13 -57 40 -75 65 l-30 44 -3 200
c-4 199 -3 200 23 254 20 41 38 61 73 82 47 27 49 27 255 30 l207 3 0 70 0 69
553 0 c512 0 555 -2 592 -19 80 -36 125 -113 125 -214 l0 -48 388 3 387 3 69
27 c365 141 537 623 349 981 -55 103 -158 204 -265 256 -145 72 -129 71 -1003
71 -832 0 -890 3 -1035 50 -274 90 -521 315 -636 580 -61 140 -78 233 -79 425
0 192 14 280 69 426 107 286 345 535 606 634 149 56 165 58 601 62 l406 4 5
75 c4 63 10 82 34 117 17 23 48 52 69 64 l40 23 563 0 562 0 0 -70z"/>
</g>
</svg>
